<svg width="20" height="20" viewBox="0 0 24 24" fill="none" xmlns="http://www.w3.org/2000/svg">
    <path d="M1.82698 3.13803C1.5 3.77976 1.5 4.61984 1.5 6.3V12.45C1.5 14.1302 1.5 14.9702 1.82698 15.612C2.1146 16.1765 2.57354 16.6354 3.13803 16.923C3.59576 17.1562 4.1544 17.2231 5.04681 17.2423V22.5L13.3124 17.25L17.7 17.25C19.3802 17.25 20.2202 17.25 20.862 16.923C21.4265 16.6354 21.8854 16.1765 22.173 15.612C22.5 14.9702 22.5 14.1302 22.5 12.45V6.3C22.5 4.61984 22.5 3.77976 22.173 3.13803C21.8854 2.57354 21.4265 2.1146 20.862 1.82698C20.2202 1.5 19.3802 1.5 17.7 1.5H6.3C4.61984 1.5 3.77976 1.5 3.13803 1.82698C2.57354 2.1146 2.1146 2.57354 1.82698 3.13803Z"
        stroke="#4D4D4D" stroke-width="2" stroke-linejoin="round"></path>
</svg>